# xmcd CD database file
# Copyright (C) 1993-1998 Ti Kan
#
# Track frame offsets:
#  182
#  9415
#  19412
#  31055
#  41057
#  51197
#  63375
#  73687
#  82512
#  93632
#
# Disc length: 1372 seconds
#
# Revision: 1
# Processed by: cddbd v1.4b41PL1 Copyright (c) Steve Scherf et al.
# Submitted via: CDWizzard Release:4.35
#
DISCID=77055a0a
DTITLE=Majors - Meet The Majors
DYEAR=1900
DGENRE=
TTITLE0=A Wonderful Dream
TTITLE1=Time Will Tell
TTITLE2=She's A Troublemaker
TTITLE3=Don't You Lose Your Cool
TTITLE4=A Little Bit Now (A Little Bit Later)
TTITLE5=Ooh Wee Baby
TTITLE6=I Wonder Who's Dancing With Her Now
TTITLE7=Come On, Come On
TTITLE8=Anything You Can Do (I Can Do Better)
TTITLE9=Tra La La
EXTD=
EXTT0=
EXTT1=
EXTT2=
EXTT3=
EXTT4=
EXTT5=
EXTT6=
EXTT7=
EXTT8=
EXTT9=
PLAYORDER=
